# xmcd
#
# Track frame offsets: 
#        150
#        24006
#        46144
#        63206
#        75591
#        96341
#        113232
#        132359
#        148324
#        168017
#
# Disc length: 2451 seconds
#
# Revision: 0
# Processed by: cddbd v1.5.2PL0 Copyright (c) Steve Scherf et al.
# Submitted via: ExactAudioCopyFreeDBPlugin 1.0
#
DISCID=7909910a
DTITLE=Hello Dave - Chicago Twang
DYEAR=2009
DGENRE=Country
TTITLE0=Waterville
TTITLE1=Chicago Twang
TTITLE2=Hazel Shine
TTITLE3=One Mae
TTITLE4=Kiss Me
TTITLE5=Chuck's
TTITLE6=Let Me Sleep
TTITLE7=Cha Ching
TTITLE8=Summer in Chicago
TTITLE9=Woman
EXTD=
EXTT0=
EXTT1=
EXTT2=
EXTT3=
EXTT4=
EXTT5=
EXTT6=
EXTT7=
EXTT8=
EXTT9=
PLAYORDER=
